<?xml version="1.0" standalone="no"?>
<!DOCTYPE svg PUBLIC "-//W3C//DTD SVG 20010904//EN"
 "http://www.w3.org/TR/2001/REC-SVG-20010904/DTD/svg10.dtd">
<svg version="1.0" xmlns="http://www.w3.org/2000/svg"
 width="260.000000pt" height="260.000000pt" viewBox="0 0 260.000000 260.000000"
 preserveAspectRatio="xMidYMid meet">
<metadata>
Created by potrace 1.11, written by Peter Selinger 2001-2013
</metadata>
<g transform="translate(0.000000,260.000000) scale(0.100000,-0.100000)"
fill="#000000" stroke="none">
<path d="M2000 2591 c0 -6 4 -13 10 -16 6 -3 7 1 4 9 -7 18 -14 21 -14 7z"/>
<path d="M2029 2594 c-1 -2 -2 -7 -3 -11 -1 -5 -5 -14 -10 -21 -6 -11 -11 -11
-24 0 -13 11 -14 11 -7 -1 6 -11 4 -13 -8 -8 -10 3 -17 2 -17 -3 0 -5 -6 -7
-13 -4 -8 3 -20 -3 -28 -13 -13 -17 -13 -17 6 -3 19 14 19 14 6 -3 -11 -13
-17 -15 -28 -6 -11 10 -12 8 -6 -7 6 -16 4 -17 -9 -7 -18 15 -29 7 -21 -15 4
-10 2 -13 -5 -8 -7 4 -17 4 -23 0 -8 -4 -7 -9 2 -15 9 -6 10 -9 2 -9 -6 0 -20
8 -29 18 -17 16 -18 16 -11 -1 5 -14 2 -20 -14 -24 -11 -3 -18 -11 -15 -19 4
-10 -1 -11 -20 -4 -17 7 -23 7 -19 0 3 -6 1 -10 -5 -10 -6 0 -8 -5 -4 -12 4
-7 3 -8 -4 -4 -7 4 -12 15 -13 24 0 11 -2 12 -6 4 -2 -6 -10 -9 -16 -5 -7 4
-6 -1 2 -10 19 -24 6 -21 -18 4 -14 15 -21 17 -26 8 -5 -8 -4 -10 3 -5 7 4 12
4 12 -1 0 -4 -12 -14 -27 -21 -20 -9 -24 -9 -15 0 16 16 15 25 -3 25 -8 0 -12
-4 -9 -9 3 -4 0 -8 -5 -8 -6 0 -11 8 -12 18 0 9 -3 12 -5 5 -3 -7 -12 -9 -20
-6 -7 3 -11 10 -7 16 3 6 1 7 -6 3 -9 -6 -9 -12 1 -24 7 -10 1 -7 -14 6 -19
17 -28 20 -33 11 -6 -8 -4 -10 5 -4 9 5 11 4 6 -4 -4 -6 -11 -9 -16 -6 -4 3
-11 -1 -14 -7 -3 -7 -4 -4 -1 8 5 18 1 21 -22 18 -16 -1 -28 -3 -28 -4 0 -1
-8 -3 -18 -5 -9 -2 -15 1 -11 6 3 5 -1 9 -10 9 -8 0 -17 -6 -19 -12 -3 -7 -6
-5 -6 6 -1 19 -1 19 -23 0 -12 -10 -18 -13 -14 -6 5 8 1 12 -11 12 -11 0 -25
-6 -33 -12 -8 -7 -6 -2 5 11 11 14 14 21 8 17 -7 -4 -13 -3 -13 2 0 5 -7 9
-15 9 -10 0 -12 -4 -5 -12 6 -7 3 -11 -10 -11 -10 0 -17 3 -14 7 2 4 -3 10
-12 13 -8 3 -13 2 -10 -3 4 -5 -3 -7 -15 -4 -16 4 -18 8 -7 14 9 7 7 8 -7 6
-11 -1 -26 -6 -32 -10 -8 -5 -13 -3 -13 4 0 10 -3 10 -12 1 -7 -7 -17 -12 -23
-12 -5 0 -3 5 5 10 13 8 13 10 -2 10 -9 0 -19 -6 -21 -12 -3 -8 -6 -6 -6 5 -1
9 -7 17 -13 18 -56 4 -69 8 -85 20 -9 8 -14 9 -10 3 4 -7 -2 -14 -13 -17 -11
-3 -18 -2 -15 3 3 4 -2 11 -11 14 -8 3 -12 2 -9 -4 9 -14 -8 -12 -24 3 -9 7
-12 8 -7 0 7 -13 -19 -12 -31 2 -4 4 -2 5 6 0 10 -6 12 -4 6 5 -6 10 -11 9
-22 -5 -12 -17 -17 -14 -14 7 0 4 -11 3 -25 -2 -19 -7 -31 -7 -40 1 -8 6 -14
8 -14 5 0 -4 -10 -1 -23 6 -38 21 -51 19 -30 -5 12 -15 13 -18 2 -9 -9 6 -19
8 -23 4 -4 -4 -7 -2 -6 3 6 26 -2 33 -32 30 -18 -2 -33 -4 -33 -5 0 -1 -10 -3
-22 -4 -12 -1 -20 0 -18 4 2 4 -2 7 -10 7 -8 0 -12 -4 -9 -9 6 -10 -25 -6 -43
5 -8 5 -13 3 -13 -5 0 -10 -2 -10 -9 0 -10 17 -23 15 -34 -4 -5 -8 -12 -12
-18 -9 -5 3 -6 0 -4 -7 3 -9 -2 -14 -15 -16 -49 -4 -49 -4 -38 -26 6 -12 7
-18 3 -14 -5 4 -15 2 -23 -5 -13 -10 -14 -9 -7 2 6 10 4 12 -4 7 -7 -5 -10
-15 -6 -23 4 -13 3 -14 -10 -3 -13 11 -14 10 -10 -3 7 -17 -32 -50 -48 -40 -5
3 -4 -5 3 -17 10 -18 9 -21 -1 -15 -9 6 -11 3 -6 -8 3 -9 1 -19 -5 -23 -7 -4
-8 -3 -4 4 10 17 -3 15 -20 -3 -12 -12 -12 -15 -2 -15 10 0 10 -3 -2 -9 -8 -6
-19 -7 -25 -5 -5 3 -2 -1 8 -9 17 -14 16 -15 -3 -20 -11 -3 -20 -11 -20 -19 0
-10 3 -9 10 2 5 8 10 10 10 5 0 -6 -9 -18 -20 -28 -12 -10 -17 -23 -13 -33 5
-12 3 -15 -6 -9 -10 6 -11 3 -2 -13 7 -14 8 -23 1 -27 -6 -4 -8 -10 -5 -15 3
-5 1 -11 -4 -14 -10 -7 -9 13 2 31 4 6 2 15 -4 19 -7 4 -9 3 -5 -4 3 -6 2 -13
-3 -16 -5 -3 -7 -29 -4 -57 3 -40 1 -49 -9 -43 -10 6 -10 4 1 -9 11 -14 11
-17 0 -17 -11 0 -11 -2 1 -10 13 -8 13 -10 1 -10 -11 0 -9 -4 5 -15 19 -15 19
-15 -1 -9 -19 5 -19 5 -2 -9 18 -15 18 -15 0 -20 -17 -4 -17 -5 0 -6 14 -1 16
-5 7 -20 -7 -14 -7 -22 0 -26 6 -4 7 -11 4 -17 -4 -7 -2 -8 5 -4 9 6 9 11 1
21 -8 9 -7 14 3 18 10 4 13 -2 11 -18 -1 -13 -5 -29 -9 -34 -4 -7 0 -8 11 -4
13 5 15 3 8 -8 -12 -19 -11 -42 1 -52 6 -5 0 -7 -13 -4 -23 5 -31 -8 -9 -16 7
-3 4 -6 -6 -6 -10 -1 -15 -5 -12 -11 3 -5 0 -10 -7 -10 -9 0 -9 -3 2 -10 13
-8 12 -10 -4 -10 -15 0 -16 -3 -7 -14 9 -11 9 -16 0 -22 -8 -4 -9 -3 -5 4 4 7
2 12 -3 12 -6 0 -11 -10 -11 -23 0 -13 -6 -29 -12 -36 -11 -11 -10 -12 2 -6
13 8 13 7 1 -8 -11 -14 -11 -17 0 -17 12 0 12 -2 0 -9 -11 -7 -11 -9 0 -14 12
-5 12 -7 0 -15 -9 -7 -10 -12 -2 -16 6 -4 11 -12 11 -18 0 -6 -7 -5 -18 3 -15
13 -16 12 -4 -3 8 -9 11 -21 8 -26 -3 -6 1 -15 9 -22 13 -11 14 -10 9 6 -5 15
-4 16 5 4 6 -9 7 -18 1 -24 -15 -15 -12 -30 3 -17 19 15 30 1 14 -17 -10 -13
-9 -15 5 -10 21 9 31 -2 16 -19 -6 -7 -8 -16 -4 -20 3 -3 6 -1 6 5 0 6 7 9 15
6 8 -4 15 -12 15 -20 0 -8 5 -14 11 -14 5 0 7 6 3 13 -5 8 -2 8 9 -2 18 -15
23 -26 7 -16 -5 3 -10 1 -10 -4 0 -6 7 -11 16 -11 9 0 12 -5 8 -12 -5 -8 0 -7
11 2 15 12 17 12 10 1 -6 -11 -4 -13 9 -8 12 5 19 0 26 -16 5 -12 9 -16 9 -9
1 7 6 10 12 7 6 -4 8 -13 5 -20 -3 -8 2 -11 15 -8 12 3 19 0 19 -8 0 -12 2
-12 9 0 7 10 9 7 8 -12 -2 -17 -5 -22 -13 -16 -8 6 -10 1 -6 -17 3 -18 1 -25
-6 -20 -6 4 -9 -3 -8 -19 2 -13 0 -23 -3 -20 -4 2 -13 0 -21 -6 -13 -7 -13 -9
0 -9 12 -1 11 -3 -3 -11 -9 -5 -17 -15 -17 -20 0 -6 5 -7 12 -3 7 5 8 3 4 -5
-5 -7 -11 -10 -14 -7 -10 11 -41 -26 -35 -42 5 -11 3 -13 -7 -7 -10 6 -12 4
-7 -8 3 -9 1 -19 -5 -23 -6 -4 -8 -3 -4 4 3 6 2 13 -3 16 -5 4 -8 -5 -6 -19 2
-26 -10 -34 -18 -12 -3 7 -6 4 -6 -6 -1 -12 -5 -16 -13 -11 -8 5 -7 0 2 -11
12 -15 12 -17 1 -10 -11 6 -13 4 -7 -11 4 -10 4 -15 0 -11 -4 4 -14 1 -23 -5
-13 -10 -14 -10 -3 2 6 8 12 19 12 24 0 6 -8 -1 -17 -14 -10 -14 -17 -28 -16
-32 2 -4 -6 -5 -17 -3 -11 2 -19 -1 -17 -7 1 -6 -4 -13 -12 -16 -9 -3 -11 0
-6 8 5 9 4 11 -4 6 -9 -6 -9 -11 -1 -21 10 -11 8 -13 -9 -10 -13 2 -21 -1 -21
-10 0 -8 -9 -12 -25 -11 -20 3 -23 0 -15 -14 5 -10 8 -19 7 -21 -1 -2 0 -3 2
-2 2 1 13 -2 24 -8 11 -7 17 -7 13 -1 -3 5 6 12 19 15 14 2 28 0 32 -6 3 -5 2
-7 -3 -4 -6 3 -16 2 -23 -2 -8 -5 1 -8 23 -7 20 0 38 7 41 14 4 10 13 8 37 -9
17 -13 28 -18 24 -11 -10 16 36 16 52 0 7 -7 12 -8 12 -4 0 5 -8 15 -18 22
-13 10 -14 12 -2 11 8 -2 20 -6 27 -10 6 -4 14 -1 16 5 4 10 8 9 16 -2 10 -13
11 -13 11 0 0 13 1 13 11 0 8 -12 12 -12 16 -2 4 10 8 10 21 0 9 -7 13 -8 10
-3 -4 6 2 16 13 23 11 7 19 8 19 2 0 -5 -4 -10 -10 -10 -5 0 -10 -5 -10 -11 0
-8 4 -9 13 0 8 6 18 7 22 3 5 -4 6 0 3 9 -4 10 -1 16 8 16 8 0 13 -6 10 -13
-3 -8 0 -16 6 -20 7 -5 8 -2 3 6 -6 10 -4 12 8 7 23 -9 31 10 10 21 -14 9 -13
10 9 9 14 -1 24 -5 22 -9 -2 -4 1 -10 7 -14 7 -4 9 -3 6 2 -3 6 -2 16 4 24 7
12 9 12 9 1 0 -10 4 -11 13 -3 14 12 52 -10 39 -23 -4 -4 4 -2 17 5 19 10 22
10 15 -1 -16 -26 -11 -62 10 -67 20 -5 20 -5 0 -13 -16 -7 -17 -8 -1 -8 16 -1
21 -12 18 -40 -2 -7 2 -11 7 -7 5 3 9 -1 9 -9 0 -8 -4 -12 -9 -9 -4 3 -8 0 -8
-5 0 -6 10 -11 23 -12 21 0 21 -1 2 -9 -11 -5 -15 -9 -9 -9 16 -1 35 -53 37
-98 0 -7 4 -10 9 -7 4 3 8 0 8 -5 0 -6 -6 -11 -12 -11 -7 0 -2 -7 10 -16 12
-8 22 -26 22 -40 0 -13 6 -24 13 -24 8 0 7 -4 -3 -10 -13 -8 -12 -10 3 -10 20
0 22 -11 5 -28 -9 -9 -8 -12 6 -12 13 0 16 -5 11 -19 -4 -13 0 -23 12 -30 10
-6 12 -11 6 -11 -7 0 -13 -5 -13 -11 0 -5 5 -7 12 -3 8 5 9 2 5 -9 -4 -12 -1
-17 11 -17 16 -1 16 -1 -1 -11 -18 -11 -14 -29 6 -29 7 0 6 4 -3 10 -8 5 -10
10 -4 10 6 0 18 -8 25 -17 8 -10 9 -14 2 -10 -8 5 -11 0 -10 -13 1 -11 4 -20
8 -20 4 0 10 -7 13 -16 5 -14 4 -15 -9 -4 -13 11 -14 10 -9 -4 3 -9 13 -16 21
-16 12 0 13 -3 4 -14 -8 -9 -8 -16 -2 -20 5 -4 12 -2 16 4 4 6 12 4 22 -5 9
-9 22 -14 31 -10 13 5 13 3 1 -12 -9 -11 -10 -14 -1 -9 6 4 12 2 12 -4 0 -8 6
-7 21 1 15 8 19 8 15 0 -4 -6 -3 -11 2 -11 5 0 14 -10 20 -22 6 -13 11 -17 11
-10 1 7 6 10 13 6 7 -5 8 -3 3 7 -7 11 -6 12 7 2 8 -7 19 -9 23 -5 5 4 6 0 3
-9 -4 -9 -1 -16 7 -16 8 0 11 7 8 16 -4 11 -1 10 9 -3 8 -10 20 -16 25 -13 6
4 17 -1 24 -10 12 -14 12 -16 -1 -8 -9 5 -12 4 -7 -1 4 -4 20 -9 35 -10 47 -3
52 -4 52 -14 0 -12 -22 -9 -33 5 -5 6 -7 4 -5 -5 3 -10 20 -15 57 -16 37 -1
48 2 37 8 -29 16 -17 24 35 23 28 0 53 4 56 9 4 5 1 6 -7 1 -9 -6 -11 -4 -6 4
6 9 13 8 28 -6 21 -18 21 -18 9 4 -8 15 -8 23 -1 23 5 0 10 -4 10 -8 0 -5 7
-9 15 -9 12 0 12 3 2 16 -9 12 -9 13 0 7 21 -12 54 -16 47 -5 -3 6 5 8 21 5
24 -4 25 -3 13 11 -10 13 -10 15 0 9 7 -4 18 -4 25 1 7 6 27 9 45 8 25 -1 31
3 27 14 -5 12 -2 11 13 -2 17 -16 19 -15 35 0 12 12 17 13 17 5 0 -7 5 -10 10
-7 6 4 8 10 6 14 -3 4 1 8 9 8 8 0 12 -3 10 -7 -2 -4 3 -7 11 -7 8 0 13 6 10
13 -3 8 0 16 6 20 6 4 8 3 4 -4 -3 -6 -2 -13 3 -16 5 -3 11 1 15 9 3 8 11 15
17 15 8 0 7 -6 -2 -17 -12 -16 -12 -17 2 -6 9 7 20 9 24 5 5 -4 5 -1 1 6 -6 9
-1 11 19 8 20 -4 24 -2 16 7 -7 9 -5 13 9 13 10 0 17 -4 14 -7 -2 -4 1 -11 7
-15 8 -4 9 -3 5 4 -4 7 -2 12 4 12 6 0 9 4 6 8 -7 12 38 9 46 -3 5 -6 8 -4 8
6 0 11 10 15 41 14 22 -1 43 3 46 9 4 5 1 6 -7 1 -9 -5 -11 -4 -6 4 6 9 11 9
24 -1 10 -8 13 -9 9 -1 -4 6 -3 14 3 18 5 3 10 2 10 -3 0 -5 7 -9 15 -9 12 0
12 3 2 16 -9 12 -9 13 1 7 6 -4 18 -4 25 1 18 11 36 12 43 2 3 -5 10 -7 15 -3
5 3 7 9 5 13 -3 4 1 8 8 8 9 0 12 -7 8 -16 -5 -14 -4 -14 10 -1 9 8 14 18 12
21 -2 3 3 6 11 6 8 0 11 -5 8 -10 -3 -6 -1 -7 5 -3 5 3 13 0 16 -6 3 -7 3 1 0
17 -4 18 -2 25 3 18 10 -13 88 -12 101 2 4 5 1 5 -7 0 -10 -6 -12 -4 -7 4 6 9
11 9 24 -1 10 -8 13 -9 9 -1 -4 6 -3 14 3 18 5 3 10 2 10 -3 0 -5 7 -9 15 -9
11 0 12 4 4 13 -7 8 -6 14 2 20 7 4 9 3 5 -4 -4 -7 3 -10 21 -8 16 1 27 8 25
15 -1 7 2 10 7 7 5 -4 12 -2 16 4 3 5 0 10 -7 10 -9 0 -9 3 2 10 12 8 12 10 1
10 -11 0 -11 3 -1 15 10 12 10 15 0 15 -10 0 -10 3 0 15 12 14 7 19 -15 16 -5
-1 -2 5 7 12 20 16 14 28 -10 20 -14 -4 -14 -3 -3 5 8 6 10 15 6 22 -5 8 -4
11 3 6 6 -3 13 -2 17 4 3 5 -1 10 -9 10 -8 0 -18 5 -22 12 -5 7 -2 9 8 5 24
-9 29 3 11 29 -9 15 -11 24 -4 24 6 0 11 4 11 10 0 5 -8 7 -17 4 -11 -4 -14
-3 -7 3 6 4 13 23 16 40 4 26 2 30 -9 22 -9 -9 -13 -8 -13 0 0 7 -5 9 -12 5
-7 -4 -8 -3 -4 5 4 6 12 9 17 6 5 -4 9 -1 9 5 0 6 5 8 12 4 7 -4 8 -3 4 5 -4
6 -13 8 -19 4 -7 -4 -5 2 3 12 14 17 13 18 -4 12 -16 -6 -17 -5 -6 8 7 8 17
12 23 8 6 -3 7 -1 3 6 -4 6 -11 9 -16 6 -5 -3 -12 0 -16 6 -4 7 -3 9 4 5 6 -3
13 -2 17 4 3 5 1 10 -4 10 -6 0 -11 8 -11 18 0 14 2 15 10 2 7 -12 9 -10 7 8
-1 14 -6 21 -15 17 -7 -2 -11 -1 -7 4 3 5 2 11 -2 14 -5 2 -3 3 3 1 7 -1 10 5
7 17 -3 11 0 19 8 19 7 0 9 3 6 6 -4 4 -12 2 -20 -4 -10 -8 -13 -7 -13 7 0 11
6 17 13 14 9 -4 11 0 6 13 -5 13 -3 15 7 9 9 -5 7 0 -3 16 -20 28 -22 43 -4
33 6 -4 3 3 -8 16 -11 13 -14 20 -7 16 6 -4 12 -2 12 3 0 6 -6 11 -12 11 -9 0
-8 4 2 10 8 5 10 10 5 10 -6 0 -11 9 -12 20 -1 11 3 18 8 14 12 -7 7 19 -6 28
-6 5 -4 8 5 8 13 0 13 1 0 10 -9 6 -11 13 -5 18 13 10 18 35 5 27 -5 -3 -10
-1 -10 4 0 6 6 11 13 11 9 0 9 2 -1 8 -8 5 -10 16 -6 27 5 13 4 16 -4 11 -8
-5 -10 -2 -6 9 4 8 2 21 -4 28 -12 14 10 51 24 39 4 -4 2 1 -5 10 -7 10 -17
15 -22 12 -5 -3 -9 0 -9 5 0 6 9 11 20 11 l21 0 -20 21 c-15 17 -18 26 -10 40
5 11 6 19 2 19 -4 0 1 7 11 15 18 14 12 20 -16 17 -3 -1 -12 6 -20 16 -12 15
-11 16 4 4 9 -8 19 -9 22 -4 3 6 -2 13 -12 17 -16 6 -16 7 1 20 13 10 15 14 5
18 -10 4 -10 6 1 6 11 1 10 5 -5 16 -19 14 -19 14 1 15 16 0 17 2 5 9 -8 6
-19 7 -25 3 -5 -3 -4 1 2 10 7 8 10 17 7 20 -3 3 3 5 13 4 13 -1 18 6 18 26 0
15 9 34 20 43 11 9 14 14 8 10 -7 -3 -13 -1 -13 4 0 6 6 11 14 11 8 0 18 5 22
12 4 7 3 8 -4 4 -7 -4 -12 -2 -12 3 0 6 6 11 13 11 8 0 7 4 -3 10 -13 9 -7 14
13 11 4 0 7 6 7 15 0 9 5 13 13 9 6 -4 3 1 -7 9 -16 13 -17 16 -4 16 9 0 19 7
22 16 5 12 2 15 -10 10 -14 -5 -15 -4 -4 9 7 8 17 12 22 9 6 -4 4 4 -3 17 -11
22 -11 23 4 11 14 -12 16 -11 12 7 -2 12 0 21 5 21 5 0 6 7 3 17 -4 10 -2 14
4 10 6 -4 14 0 17 9 3 8 2 13 -3 10 -5 -3 -11 1 -15 9 -3 8 -1 17 5 21 5 3 7
15 4 27 -4 12 -3 18 2 12 17 -21 29 -13 25 17 -3 18 -1 28 5 25 5 -3 10 0 10
8 0 8 -4 12 -8 10 -8 -6 -6 11 6 39 6 13 4 21 -4 24 -9 3 -8 9 5 23 16 18 16
19 0 19 -9 0 -14 5 -11 10 4 6 10 8 15 5 13 -8 6 21 -10 41 -8 10 -10 15 -3
11 10 -6 11 -2 4 32 -1 2 -8 -2 -16 -9 -18 -15 -20 1 -2 19 10 11 10 13 0 7
-8 -5 -13 -1 -13 9 0 9 -4 14 -9 11 -9 -6 -26 22 -22 38 1 5 -6 6 -15 2 -12
-5 -15 -2 -10 10 6 14 4 15 -9 4 -9 -7 -15 -9 -14 -4 4 22 -2 34 -17 34 -8 0
-12 5 -9 10 5 9 -24 15 -48 11 -5 -1 -6 3 -2 9 3 6 12 7 18 3 7 -4 6 0 -2 10
-7 9 -20 17 -28 17 -9 0 -11 5 -7 13 5 7 1 7 -12 -3 -10 -8 -16 -11 -12 -6 4
5 -4 17 -17 28 -14 11 -25 24 -25 30 0 6 9 0 21 -13 l20 -24 -17 28 c-13 21
-19 25 -30 16 -10 -8 -14 -8 -14 0 0 6 -6 11 -14 11 -8 0 -17 4 -21 9 -3 6 4
8 15 6 11 -2 18 0 15 5 -5 8 -234 13 -236 4z m21 -14 c0 -5 -2 -10 -4 -10 -3
0 -8 5 -11 10 -3 6 -1 10 4 10 6 0 11 -4 11 -10z m-998 -89 c8 11 9 11 6 1 -4
-16 -22 -18 -24 -2 -2 7 -1 6 3 -1 4 -8 8 -7 15 2z m1328 -1025 c-7 -7 -13 -7
-20 0 -6 6 -3 10 10 10 13 0 16 -4 10 -10z m-2070 -330 c0 -2 -7 -7 -16 -10
-8 -3 -12 -2 -9 4 6 10 25 14 25 6z m2095 -165 c3 -5 2 -12 -3 -15 -5 -3 -9 1
-9 9 0 17 3 19 12 6z m-1398 -823 c2 -17 0 -19 -7 -8 -5 8 -6 18 -4 22 8 12
10 10 11 -14z"/>
<path d="M765 2550 c-3 -6 1 -7 9 -4 18 7 21 14 7 14 -6 0 -13 -4 -16 -10z"/>
<path d="M800 2540 c-9 -6 -10 -10 -3 -10 6 0 15 5 18 10 8 12 4 12 -15 0z"/>
<path d="M2530 2005 c-7 -9 -8 -15 -2 -15 5 0 12 7 16 15 3 8 4 15 2 15 -2 0
-9 -7 -16 -15z"/>
<path d="M2378 1523 c7 -3 16 -2 19 1 4 3 -2 6 -13 5 -11 0 -14 -3 -6 -6z"/>
<path d="M2390 1310 c-9 -6 -10 -10 -3 -10 6 0 15 5 18 10 8 12 4 12 -15 0z"/>
<path d="M171 864 c0 -11 3 -14 6 -6 3 7 2 16 -1 19 -3 4 -6 -2 -5 -13z"/>
<path d="M643 785 c0 -8 4 -12 9 -9 5 3 6 10 3 15 -9 13 -12 11 -12 -6z"/>
<path d="M681 674 c0 -11 3 -14 6 -6 3 7 2 16 -1 19 -3 4 -6 -2 -5 -13z"/>
<path d="M718 553 c7 -3 16 -2 19 1 4 3 -2 6 -13 5 -11 0 -14 -3 -6 -6z"/>
<path d="M2075 270 c-3 -5 -1 -10 4 -10 6 0 11 5 11 10 0 6 -2 10 -4 10 -3 0
-8 -4 -11 -10z"/>
<path d="M1515 130 c-3 -5 3 -7 12 -5 10 1 23 -2 30 -7 7 -6 14 -5 18 2 4 6 3
10 -2 9 -4 -1 -10 0 -13 1 -18 7 -41 7 -45 0z"/>
</g>
</svg>
